<svg style="display:none" xmlns="http://www.w3.org/2000/svg" xmlns:xlink="http://www.w3.org/1999/xlink" version="1.1">
	
	<symbol id="search" data-name="Grupo 4" xmlns="http://www.w3.org/2000/svg" viewBox="0 0 20.319 20.569">
		<g id="Elipse_3" data-name="Elipse 3" transform="translate(0)" fill="none" stroke="#646072" stroke-width="2">
			<circle cx="9.5" cy="9.5" r="9.5" stroke="none"/>
			<circle cx="9.5" cy="9.5" r="8.5" fill="none"/>
		</g>
		<path id="Caminho_10" data-name="Caminho 10" d="M579.315,137.991l2.761,2.761" transform="translate(-563.172 -121.597)" fill="none" stroke="#646072" stroke-linecap="round" stroke-width="2"/>
	</symbol>

	<symbol id="favorite" xmlns="http://www.w3.org/2000/svg" xmlns:xlink="http://www.w3.org/1999/xlink"  viewBox="0 0 35 35">
		<defs>
			<clipPath id="clip-path">
			<rect id="Retângulo_2076" data-name="Retângulo 2076" width="35" height="35" transform="translate(-775 -486)" fill="#a3a0ab" stroke="#a3a0ab" stroke-width="2"/>
			</clipPath> 
		</defs>
		<g id="favorito" transform="translate(775 486)" clip-path="url(#clip-path)">
			<path id="Caminho_2084" data-name="Caminho 2084" d="M28.53,5.253a7.693,7.693,0,0,0-10.881,0L16.166,6.735,14.684,5.253A7.694,7.694,0,0,0,3.8,16.134l1.483,1.483L16.166,28.5,27.048,17.617l1.483-1.483a7.693,7.693,0,0,0,0-10.881Z" transform="translate(-773.667 -484.248)" fill="rgba(163,160,171,0)" stroke="#a3a0ab" stroke-linecap="round" stroke-linejoin="round" stroke-width="2"/>
		</g>
	</symbol> 

	<symbol id="favorite_fill" xmlns="http://www.w3.org/2000/svg" xmlns:xlink="http://www.w3.org/1999/xlink"  viewBox="0 0 35 35">
		<defs>
			<clipPath id="clip-path">
			<rect id="Retângulo_2076" data-name="Retângulo 2076" width="35" height="35" transform="translate(-775 -486)" fill="#a3a0ab" stroke="#a3a0ab" stroke-width="2"/>
			</clipPath> 
		</defs>
		<g id="favorito_fill" transform="translate(775 486)" clip-path="url(#clip-path)">
			<path id="Caminho_2084" data-name="Caminho 2084" d="M28.53,5.253a7.693,7.693,0,0,0-10.881,0L16.166,6.735,14.684,5.253A7.694,7.694,0,0,0,3.8,16.134l1.483,1.483L16.166,28.5,27.048,17.617l1.483-1.483a7.693,7.693,0,0,0,0-10.881Z" transform="translate(-773.667 -484.248)" fill="red" stroke="red" stroke-linecap="round" stroke-linejoin="round" stroke-width="2"/>
		</g>
	</symbol> 

	<symbol id="shopping_bag"  xmlns="http://www.w3.org/2000/svg" xmlns:xlink="http://www.w3.org/1999/xlink"  viewBox="0 0 35 35">
		<defs>
			<clipPath id="shopping_bag">
			<rect id="Retângulo_2074" data-name="Retângulo 2074" width="35" height="35" fill="#a3a0ab" stroke="#a3a0ab" stroke-width="2"/>
			</clipPath>
		</defs>
		<g id="carrinho" clip-path="url(#shopping_bag)">
			<g id="Grupo_4011" data-name="Grupo 4011" transform="translate(2.68 2.95)">
			<path id="Caminho_2082" data-name="Caminho 2082" d="M40.9,47.712H23.973L19.838,24.978A1.186,1.186,0,0,0,18.682,24H16" transform="translate(-16 -24)" fill="rgba(0,0,0,0)" stroke="#a3a0ab" stroke-linecap="round" stroke-linejoin="round" stroke-width="2"/>
			<circle id="Elipse_10" data-name="Elipse 10" cx="1" cy="1" r="1" transform="translate(20.397 27.6)" fill="#a3a0ab" stroke="#a3a0ab" stroke-linecap="round" stroke-linejoin="round" stroke-width="2"/>
			<circle id="Elipse_11" data-name="Elipse 11" cx="1" cy="1" r="1" transform="translate(8.897 27.6)" fill="#a3a0ab" stroke="#a3a0ab" stroke-linecap="round" stroke-linejoin="round" stroke-width="2"/>
			<path id="Caminho_2083" data-name="Caminho 2083" d="M50.149,75.856H68.763a2.356,2.356,0,0,0,2.327-1.941L72.9,64H48" transform="translate(-43.258 -58.072)" fill="rgba(0,0,0,0)" stroke="#a3a0ab" stroke-linecap="round" stroke-linejoin="round" stroke-width="2"/>
			</g>
		</g>
	</symbol>


	<sumbol id="filtrar" xmlns="http://www.w3.org/2000/svg" width="25" height="25" viewBox="0 0 25 25">
		<g id="Filtro" transform="translate(-14 -231)"> 
			<rect id="Retângulo_2082" data-name="Retângulo 2082" width="25" height="25" transform="translate(14 231)" fill="none"/>
			<path id="XMLID_6_" d="M3.164,7.122l6.654,7.741V21l4.091-2.727V14.864l6.654-7.741A.681.681,0,0,0,20.036,6H3.691A.681.681,0,0,0,3.164,7.122Z" transform="translate(14.5 230.5)" fill="none" stroke="#000" stroke-linecap="round" stroke-linejoin="round" stroke-miterlimit="10" stroke-width="1.3"/>
		</g>
	</sumbol>


	
	



	<symbol id="account_circle" xmlns="http://www.w3.org/2000/svg" xmlns:xlink="http://www.w3.org/1999/xlink" viewBox="0 0 35 35">
		<defs>
			<clipPath id="account_circle">
			<rect id="Retângulo_2075" data-name="Retângulo 2075" width="35" height="35" transform="translate(-701 -488)" fill="#a3a0ab" stroke="#a3a0ab" stroke-width="2"/>
			</clipPath>
		</defs>
		<g id="usuario" transform="translate(701 488)" clip-path="url(#account_circle)">
			<g id="Grupo_4010" data-name="Grupo 4010" transform="translate(-694.925 -485)">
			<path id="Caminho_2084" data-name="Caminho 2084" d="M26.85,26.863v-6.15A5.712,5.712,0,0,0,21.137,15H9.712A5.712,5.712,0,0,0,4,20.712v6.15" transform="translate(-4 2.137)" fill="rgba(0,0,0,0)" stroke="#a3a0ab" stroke-linecap="round" stroke-linejoin="round" stroke-width="2"/>
			<circle id="Elipse_13" data-name="Elipse 13" cx="6.039" cy="6.039" r="6.039" transform="translate(5.385)" fill="rgba(0,0,0,0)" stroke="#a3a0ab" stroke-linecap="round" stroke-linejoin="round" stroke-width="2"/>
			</g>
		</g>
	</symbol>




	<symbol id="cart-white" xmlns="http://www.w3.org/2000/svg" viewBox="0 0 15.141 15.913">
		<g id="Grupo_15" data-name="Grupo 15" transform="translate(-15.25 -23.25)">
			<path id="Caminho_17" data-name="Caminho 17" d="M27.459,34.913H19.669l-1.9-10.463a.546.546,0,0,0-.532-.45H16" fill="none" stroke="#fff" stroke-linecap="round" stroke-linejoin="round" stroke-width="1.5"/>
			<circle id="Elipse_4" data-name="Elipse 4" cx="0.603" cy="0.603" r="0.603" transform="translate(19.299 37.207)" fill="none" stroke="#fff" stroke-linecap="round" stroke-linejoin="round" stroke-width="1.5"/>
			<circle id="Elipse_5" data-name="Elipse 5" cx="0.603" cy="0.603" r="0.603" transform="translate(25.91 37.207)" fill="none" stroke="#fff" stroke-linecap="round" stroke-linejoin="round" stroke-width="1.5"/>
			<path id="Caminho_18" data-name="Caminho 18" d="M48.989,69.456h8.567a1.084,1.084,0,0,0,1.071-.894L59.459,64H48" transform="translate(-29.817 -37.272)" fill="none" stroke="#fff" stroke-linecap="round" stroke-linejoin="round" stroke-width="1.5"/>
		</g>
	</symbol>
	<svg id="burguer-white" xmlns="http://www.w3.org/2000/svg" viewBox="0 0 21.646 18.02">
		<g id="Grupo_8" data-name="Grupo 8" transform="translate(-258.47 -110.548)">
			<path id="Caminho_12" data-name="Caminho 12" d="M164.47-300.938h21.646" transform="translate(94 412.486)" fill="none" stroke="#fff" stroke-width="2"/>
			<path id="Caminho_13" data-name="Caminho 13" d="M164.47-300.938h21.646" transform="translate(94 420.496)" fill="none" stroke="#fff" stroke-width="2"/>
			<path id="Caminho_14" data-name="Caminho 14" d="M164.47-300.938h21.646" transform="translate(94 428.505)" fill="none" stroke="#fff" stroke-width="2"/>
		</g>
	</svg>
	<symbol id="burguer-white" xmlns="http://www.w3.org/2000/svg" xmlns:xlink="http://www.w3.org/1999/xlink"  viewBox="0 0 35 35">
		<defs>
			<clipPath id="burguer-w">
			<rect id="Retângulo_2077" data-name="Retângulo 2077" width="35" height="35" fill="#fff" stroke="#fff" stroke-width="2"/>
			</clipPath>
		</defs>
		<g id="hamburguer" clip-path="url(#burguer-w)">
			<g id="hamburguer-2" data-name="hamburguer" transform="translate(-253.566 -103.37)">
			<path id="Caminho_12" data-name="Caminho 12" d="M164.47-300.938h25.191" transform="translate(94 412.486)" fill="none" stroke="#fff" stroke-linecap="round" stroke-width="2"/>
			<path id="Caminho_13" data-name="Caminho 13" d="M164.47-300.938h25.191" transform="translate(94 421.807)" fill="none" stroke="#fff" stroke-linecap="round" stroke-width="2"/>
			<path id="Caminho_14" data-name="Caminho 14" d="M164.47-300.938h25.191" transform="translate(94 431.129)" fill="none" stroke="#fff" stroke-linecap="round" stroke-width="2"/>
			</g>
		</g>
	</symbol>

	<!-- <symbol id="menu" xmlns="http://www.w3.org/2000/svg" viewBox="0 -960 960 960" fill="currentColor"><path d="M120-240v-80h720v80H120Zm0-200v-80h720v80H120Zm0-200v-80h720v80H120Z"/></symbol> -->

	<symbol id="menu" xmlns="http://www.w3.org/2000/svg" xmlns:xlink="http://www.w3.org/1999/xlink"  viewBox="0 0 35 35">
		<defs>
			<clipPath id="burguer">
			<rect id="Retângulo_2077" data-name="Retângulo 2077" width="35" height="35" fill="#a3a0ab" stroke="#a3a0ab" stroke-width="2"/>
			</clipPath>
		</defs>
		<g id="hamburguer" clip-path="url(#burguer)">
			<g id="hamburguer-2" data-name="hamburguer" transform="translate(-253.566 -103.37)">
			<path id="Caminho_12" data-name="Caminho 12" d="M164.47-300.938h25.191" transform="translate(94 412.486)" fill="none" stroke="#a3a0ab" stroke-linecap="round" stroke-width="2"/>
			<path id="Caminho_13" data-name="Caminho 13" d="M164.47-300.938h25.191" transform="translate(94 421.807)" fill="none" stroke="#a3a0ab" stroke-linecap="round" stroke-width="2"/>
			<path id="Caminho_14" data-name="Caminho 14" d="M164.47-300.938h25.191" transform="translate(94 431.129)" fill="none" stroke="#a3a0ab" stroke-linecap="round" stroke-width="2"/>
			</g>
		</g>
	</symbol>


	<symbol id="close" xmlns="http://www.w3.org/2000/svg" viewBox="0 -960 960 960" fill="currentColor"><path d="m256-200-56-56 224-224-224-224 56-56 224 224 224-224 56 56-224 224 224 224-56 56-224-224-224 224Z"/></symbol>
	
	<symbol id="home_pin" xmlns="http://www.w3.org/2000/svg" viewBox="0 -960 960 960" fill="currentColor"><path d="M360-440h80v-110h80v110h80v-190l-120-80-120 80v190Zm120 254q122-112 181-203.5T720-552q0-109-69.5-178.5T480-800q-101 0-170.5 69.5T240-552q0 71 59 162.5T480-186Zm0 106Q319-217 239.5-334.5T160-552q0-150 96.5-239T480-880q127 0 223.5 89T800-552q0 100-79.5 217.5T480-80Zm0-480Z"/></symbol>
	<symbol id="call" xmlns="http://www.w3.org/2000/svg" viewBox="0 -960 960 960" fill="currentColor"><path d="M798-120q-125 0-247-54.5T329-329Q229-429 174.5-551T120-798q0-18 12-30t30-12h162q14 0 25 9.5t13 22.5l26 140q2 16-1 27t-11 19l-97 98q20 37 47.5 71.5T387-386q31 31 65 57.5t72 48.5l94-94q9-9 23.5-13.5T670-390l138 28q14 4 23 14.5t9 23.5v162q0 18-12 30t-30 12ZM241-600l66-66-17-94h-89q5 41 14 81t26 79Zm358 358q39 17 79.5 27t81.5 13v-88l-94-19-67 67ZM241-600Zm358 358Z"/></symbol>
	<symbol id="local_shipping" xmlns="http://www.w3.org/2000/svg" viewBox="0 -960 960 960" fill="currentColor"><path d="M240-160q-50 0-85-35t-35-85H40v-440q0-33 23.5-56.5T120-800h560v160h120l120 160v200h-80q0 50-35 85t-85 35q-50 0-85-35t-35-85H360q0 50-35 85t-85 35Zm0-80q17 0 28.5-11.5T280-280q0-17-11.5-28.5T240-320q-17 0-28.5 11.5T200-280q0 17 11.5 28.5T240-240ZM120-360h32q17-18 39-29t49-11q27 0 49 11t39 29h272v-360H120v360Zm600 120q17 0 28.5-11.5T760-280q0-17-11.5-28.5T720-320q-17 0-28.5 11.5T680-280q0 17 11.5 28.5T720-240Zm-40-200h170l-90-120h-80v120ZM360-540Z"/></symbol>
	<symbol id="pan_zoom" xmlns="http://www.w3.org/2000/svg" viewBox="0 -960 960 960" fill="currentColor"><path d="M120-120v-240h80v104l124-124 56 56-124 124h104v80H120Zm516-460-56-56 124-124H600v-80h240v240h-80v-104L636-580Z"/></symbol>
	
	<symbol id="sell" xmlns="http://www.w3.org/2000/svg" viewBox="0 -960 960 960" fill="currentColor"><path d="M856-390 570-104q-12 12-27 18t-30 6q-15 0-30-6t-27-18L103-457q-11-11-17-25.5T80-513v-287q0-33 23.5-56.5T160-880h287q16 0 31 6.5t26 17.5l352 353q12 12 17.5 27t5.5 30q0 15-5.5 29.5T856-390ZM513-160l286-286-353-354H160v286l353 354ZM260-640q25 0 42.5-17.5T320-700q0-25-17.5-42.5T260-760q-25 0-42.5 17.5T200-700q0 25 17.5 42.5T260-640Zm220 160Z"/></symbol>
	<symbol id="check-circle" xmlns="http://www.w3.org/2000/svg" viewBox="0 -960 960 960" fill="currentColor"><path d="m424-296 282-282-56-56-226 226-114-114-56 56 170 170Zm56 216q-83 0-156-31.5T197-197q-54-54-85.5-127T80-480q0-83 31.5-156T197-763q54-54 127-85.5T480-880q83 0 156 31.5T763-763q54 54 85.5 127T880-480q0 83-31.5 156T763-197q-54 54-127 85.5T480-80Zm0-80q134 0 227-93t93-227q0-134-93-227t-227-93q-134 0-227 93t-93 227q0 134 93 227t227 93Zm0-320Z"/></symbol>
	<symbol id="error" xmlns="http://www.w3.org/2000/svg" viewBox="0 -960 960 960" fill="currentColor"><path d="M480-280q17 0 28.5-11.5T520-320q0-17-11.5-28.5T480-360q-17 0-28.5 11.5T440-320q0 17 11.5 28.5T480-280Zm-40-160h80v-240h-80v240Zm40 360q-83 0-156-31.5T197-197q-54-54-85.5-127T80-480q0-83 31.5-156T197-763q54-54 127-85.5T480-880q83 0 156 31.5T763-763q54 54 85.5 127T880-480q0 83-31.5 156T763-197q-54 54-127 85.5T480-80Zm0-80q134 0 227-93t93-227q0-134-93-227t-227-93q-134 0-227 93t-93 227q0 134 93 227t227 93Zm0-320Z"/></symbol>
	<symbol id="trash" xmlns="http://www.w3.org/2000/svg" viewBox="0 -960 960 960" fill="#a3a0ab"><path d="M280-120q-33 0-56.5-23.5T200-200v-520h-40v-80h200v-40h240v40h200v80h-40v520q0 33-23.5 56.5T680-120H280Zm400-600H280v520h400v-520ZM360-280h80v-360h-80v360Zm160 0h80v-360h-80v360ZM280-720v520-520Z"/></symbol>
	<symbol id="chevron-right" xmlns="http://www.w3.org/2000/svg"  viewBox="0 0 14.772 26.092"><path id="Caminho_15" data-name="Caminho 15" d="M147.689-472.292l11.151,11.151-11.151,10.7" transform="translate(-145.568 474.413)" fill="none" stroke="#282828" stroke-linecap="round" stroke-linejoin="round" stroke-width="3"/></symbol>
	<!-- <symbol id="favorite" xmlns="http://www.w3.org/2000/svg"  viewBox="0 0 29.987 25.43"><path id="Caminho_2073" data-name="Caminho 2073" d="M16,28.72a3,3,0,0,1-2.13-.88L3.57,17.54a8.72,8.72,0,0,1-2.52-6.25,8.06,8.06,0,0,1,8.14-8A8.06,8.06,0,0,1,15,5.68l1,1,.82-.82h0a8.39,8.39,0,0,1,11-.89,8.25,8.25,0,0,1,.81,12.36L18.13,27.84a3,3,0,0,1-2.13.88ZM9.15,5.28A6.12,6.12,0,0,0,4.89,7a6,6,0,0,0-1.84,4.33A6.72,6.72,0,0,0,5,16.13l10.3,10.3a1,1,0,0,0,1.42,0L27.23,15.91A6.25,6.25,0,0,0,29,11.11a6.18,6.18,0,0,0-2.43-4.55,6.37,6.37,0,0,0-8.37.71L16.71,8.8a1,1,0,0,1-1.42,0l-1.7-1.7a6.28,6.28,0,0,0-4.4-1.82Z" transform="translate(-1.049 -3.29)" fill="#aaa"/></symbol> -->
	<symbol id="arrow-white" xmlns="http://www.w3.org/2000/svg" viewBox="0 0 14.772 26.092"><path id="Caminho_15" data-name="Caminho 15" d="M147.689-472.292l11.151,11.151-11.151,10.7" transform="translate(-145.568 474.413)" fill="none" stroke="#fff" stroke-linecap="round" stroke-linejoin="round" stroke-width="3"/>
	</symbol>
	<!-- <symbol id="share" id="Grupo_4" data-name="Grupo 4" xmlns="http://www.w3.org/2000/svg"  viewBox="0 0 20.319 20.569"><g id="Elipse_3" data-name="Elipse 3" transform="translate(0)" fill="none" stroke="#646072" stroke-width="2"><circle cx="9.5" cy="9.5" r="9.5" stroke="none"/><circle cx="9.5" cy="9.5" r="8.5" fill="none"/></g><path id="Caminho_10" data-name="Caminho 10" d="M579.315,137.991l2.761,2.761" transform="translate(-563.172 -121.597)" fill="none" stroke="#646072" stroke-linecap="round" stroke-width="2"/></symbol> -->

	<symbol id="info" xmlns="http://www.w3.org/2000/svg"  viewBox="0 0 21 21">
	<g id="info" transform="translate(729 256)">
		<circle id="Elipse_22" data-name="Elipse 22" cx="10.5" cy="10.5" r="10.5" transform="translate(-729 -256)" fill="#282828"/>
		<path id="Caminho_2147" data-name="Caminho 2147" d="M4.68,44.31H3.744V37.687a.941.941,0,0,0-.936-.946H.936A.941.941,0,0,0,0,37.687a.918.918,0,0,0,.936.92h.936v5.677H.936a.946.946,0,0,0,0,1.892H4.68a.941.941,0,0,0,.936-.946A.918.918,0,0,0,4.68,44.31ZM2.808,34.848a1.419,1.419,0,1,0-1.4-1.419A1.412,1.412,0,0,0,2.808,34.848Z" transform="translate(-721.308 -284.593)" fill="#fff"/>
	</g>
	</symbol>



</svg>
